<svg xmlns="http://www.w3.org/2000/svg" xmlns:xlink="http://www.w3.org/1999/xlink" width="500" zoomAndPan="magnify" viewBox="0 0 375 374.999991" height="500" preserveAspectRatio="xMidYMid meet" version="1.0"><defs><clipPath id="950449615c"><path d="M 0 93 L 375 93 L 375 284.0625 L 0 284.0625 Z M 0 93 " clip-rule="nonzero"/></clipPath></defs><g clip-path="url(#950449615c)"><path fill="#ffffff" d="M 108.542969 182.515625 C 108.542969 188.410156 113.3125 193.1875 119.195312 193.1875 C 125.078125 193.1875 129.847656 188.410156 129.847656 182.515625 C 129.847656 176.621094 125.078125 171.835938 119.195312 171.835938 C 113.3125 171.835938 108.542969 176.621094 108.542969 182.515625 Z M 77.007812 182.515625 C 77.007812 188.410156 81.777344 193.1875 87.660156 193.1875 C 93.542969 193.1875 98.316406 188.410156 98.316406 182.515625 C 98.316406 176.621094 93.542969 171.835938 87.660156 171.835938 C 81.777344 171.835938 77.007812 176.621094 77.007812 182.515625 Z M 45.214844 182.515625 C 45.214844 188.410156 49.984375 193.1875 55.867188 193.1875 C 61.75 193.1875 66.519531 188.410156 66.519531 182.515625 C 66.519531 176.621094 61.75 171.835938 55.867188 171.835938 C 49.984375 171.835938 45.214844 176.621094 45.214844 182.515625 Z M 83.230469 253.503906 C 77.621094 252.828125 72.101562 251.503906 66.832031 249.566406 C 65.226562 248.980469 63.46875 248.976562 61.863281 249.558594 L 20.195312 264.660156 L 33.058594 229.449219 C 33.871094 227.21875 33.550781 224.726562 32.195312 222.78125 C 21.941406 208.058594 17.476562 190.132812 19.621094 172.296875 C 21.949219 152.941406 31.660156 135.652344 46.96875 123.613281 C 62.277344 111.574219 81.347656 106.230469 100.667969 108.5625 C 113.351562 110.09375 125.429688 114.9375 135.585938 122.566406 L 144.296875 110.921875 C 132.101562 101.765625 117.617188 95.957031 102.40625 94.117188 C 79.234375 91.320312 56.363281 97.730469 38.003906 112.167969 C 19.644531 126.609375 7.996094 147.34375 5.203125 170.558594 C 2.78125 190.671875 7.375 210.882812 18.15625 227.910156 L 1.207031 274.304688 C 0.234375 276.964844 0.890625 279.941406 2.878906 281.945312 C 4.265625 283.339844 6.125 284.085938 8.023438 284.085938 C 8.851562 284.085938 9.6875 283.941406 10.496094 283.652344 L 64.378906 264.117188 C 69.921875 265.960938 75.667969 267.246094 81.492188 267.949219 C 85.027344 268.375 88.554688 268.585938 92.0625 268.585938 C 114.609375 268.585938 136.269531 259.882812 152.734375 243.929688 L 142.636719 233.46875 C 126.769531 248.84375 105.117188 256.148438 83.230469 253.503906 Z M 374.78125 167.957031 L 374.78125 155.824219 L 352.464844 155.824219 L 352.464844 129.558594 L 338.277344 134.15625 L 338.277344 155.824219 L 323.050781 155.824219 L 323.050781 167.957031 L 338.277344 167.957031 L 338.277344 220.484375 C 338.277344 237.824219 346.03125 246.488281 361.546875 246.488281 C 367.023438 246.488281 371.4375 245.566406 374.78125 243.714844 L 374.78125 231.578125 C 372.1875 233.546875 369.101562 234.527344 365.527344 234.527344 C 360.855469 234.527344 357.511719 233.257812 355.492188 230.714844 C 353.472656 228.167969 352.464844 223.921875 352.464844 217.972656 L 352.464844 167.957031 Z M 303.40625 199.683594 L 282.035156 202.628906 C 275.460938 203.554688 270.5 205.1875 267.15625 207.527344 C 263.808594 209.867188 262.136719 214.015625 262.136719 219.964844 C 262.136719 224.300781 263.683594 227.839844 266.765625 230.585938 C 269.851562 233.332031 273.960938 234.703125 279.09375 234.703125 C 286.132812 234.703125 291.941406 232.226562 296.527344 227.289062 C 301.113281 222.347656 303.40625 216.09375 303.40625 208.523438 Z M 317.59375 186.855469 L 317.59375 244.582031 L 303.40625 244.582031 L 303.40625 230.714844 L 303.058594 230.714844 C 296.886719 241.347656 287.800781 246.664062 275.808594 246.664062 C 266.984375 246.664062 260.074219 244.324219 255.089844 239.644531 C 250.097656 234.960938 247.605469 228.746094 247.605469 221.003906 C 247.605469 204.421875 257.351562 194.773438 276.84375 192.054688 L 303.40625 188.328125 C 303.40625 173.246094 297.320312 165.703125 285.148438 165.703125 C 274.476562 165.703125 264.847656 169.34375 256.257812 176.625 L 256.257812 162.066406 C 264.964844 156.519531 274.996094 153.746094 286.363281 153.746094 C 307.179688 153.746094 317.59375 164.78125 317.59375 186.855469 Z M 238.078125 189.890625 L 238.078125 244.582031 L 223.894531 244.582031 L 223.894531 193.441406 C 223.894531 174.953125 217.027344 165.703125 203.300781 165.703125 C 196.382812 165.703125 190.558594 168.378906 185.828125 173.722656 C 181.097656 179.070312 178.734375 185.933594 178.734375 194.308594 L 178.734375 244.582031 L 164.546875 244.582031 L 164.546875 113.179688 L 178.734375 113.179688 L 178.734375 170.558594 L 179.078125 170.558594 C 185.882812 159.347656 195.574219 153.746094 208.144531 153.746094 C 228.101562 153.746094 238.078125 165.792969 238.078125 189.890625 " fill-opacity="1" fill-rule="nonzero"/></g></svg>