<svg xmlns="http://www.w3.org/2000/svg" xmlns:xlink="http://www.w3.org/1999/xlink" width="1080" zoomAndPan="magnify" viewBox="0 0 810 809.999993" height="1080" preserveAspectRatio="xMidYMid meet" version="1.0"><rect x="-81" width="972" fill="#ffffff" y="-80.999999" height="971.999992" fill-opacity="1"/><rect x="-81" width="972" fill="#ffffff" y="-80.999999" height="971.999992" fill-opacity="1"/><rect x="-81" width="972" fill="#d9d9d9" y="-80.999999" height="971.999992" fill-opacity="1"/><path fill="#ffffff" d="M 405 243 C 360.246094 243 324 279.246094 324 324 C 324 368.652344 360.246094 405 405 405 C 449.753906 405 486 368.652344 486 324 C 486 279.246094 449.753906 243 405 243 Z M 405 445.5 C 351.035156 445.5 243 472.535156 243 526.5 L 243 567 L 567 567 L 567 526.5 C 567 472.535156 458.964844 445.5 405 445.5 Z M 405 445.5 " fill-opacity="1" fill-rule="nonzero"/></svg>